<svg data-v-423bf9ae="" xmlns="http://www.w3.org/2000/svg" viewBox="0 0 309 91" class="iconLeftSlogan"><!----><!----><!----><g data-v-423bf9ae="" id="8f1070d3-b116-49bf-8d20-617d6d133205" fill="black" transform="matrix(4.761904617736313,0,0,4.761904617736313,97.92261489115222,-18.666667418505156)"><path d="M11.31 3.92L8.90 3.92L6.36 12.21L3.81 3.92L1.33 3.92L1.33 13.58L2.87 13.58L2.87 8.83C2.87 7.73 2.87 6.43 2.84 5.39C3.11 6.41 3.51 7.73 3.86 8.81L5.43 13.58L7.21 13.58L8.76 8.82C9.13 7.73 9.53 6.40 9.81 5.38C9.79 6.40 9.79 7.73 9.79 8.83L9.79 13.58L11.31 13.58ZM16.49 5.95C13.99 5.95 12.73 7.69 12.73 9.86C12.73 12.03 13.99 13.78 16.49 13.78C18.98 13.78 20.26 12.03 20.26 9.86C20.26 7.69 18.98 5.95 16.49 5.95ZM16.49 12.66C15.13 12.66 14.35 11.54 14.35 9.86C14.35 8.18 15.13 7.07 16.49 7.07C17.84 7.07 18.62 8.18 18.62 9.86C18.62 11.54 17.84 12.66 16.49 12.66ZM28.18 8.08C28.04 6.78 27.13 5.95 25.54 5.95C24.79 5.95 24.25 6.08 23.66 6.52L23.16 7.38L23.16 6.15L21.62 6.15L21.62 13.58L23.16 13.58L23.16 10.25C23.16 7.92 24.02 7.08 25.09 7.08C26.14 7.08 26.59 7.67 26.66 8.51C26.68 8.89 26.68 9.21 26.68 9.56L26.68 13.58L28.22 13.58L28.22 9.39C28.22 8.79 28.21 8.46 28.18 8.08ZM36.50 9.67C36.50 7.57 35.34 5.95 33.18 5.95C31.04 5.95 29.54 7.53 29.54 9.88C29.54 12.52 31.04 13.78 33.03 13.78C34.65 13.78 36.06 12.94 36.39 11.17L34.83 11.17C34.68 12.11 33.98 12.66 33.08 12.66C32.07 12.66 31.26 12.07 31.14 10.29L36.47 10.29C36.50 10.02 36.50 9.81 36.50 9.67ZM33.12 7.07C34.20 7.07 34.80 7.84 34.92 9.21L31.15 9.21C31.32 7.78 32.07 7.07 33.12 7.07ZM44.25 6.15L42.59 6.15L40.56 12.43L38.51 6.15L36.79 6.15L39.79 13.93L39.68 14.20C39.34 15.06 38.86 15.36 38.16 15.36C38.01 15.36 37.86 15.36 37.67 15.34L37.67 16.48C37.90 16.52 38.09 16.52 38.40 16.52C39.75 16.52 40.54 15.82 41.23 14.06Z"></path></g><!----><g data-v-423bf9ae="" id="01a45905-2451-4237-8e7b-61a9c23f677a" transform="matrix(1.0009237549608239,0,0,1.0009237549608239,-7.135293898658695,-5.004618775685081)" stroke="none" fill="black"><path d="M92.1 89.3c-.4 1.1-.7 2.1-1.1 2.9-.3.7-.7 1.4-1.2 1.9-1 1-1.7 1.1-2.8.2-3.6-2.9-7.2-5.8-10-9.5s-5.9-7.2-8.4-11.1c-3.2-5-7.2-9.2-10.8-13.8-1-1.2-1.9-2.5-2.9-3.6-.5-.6-1.2-1.1-1.9-1.8-1.3 1-2.4 2-3.5 2.9-1.7 1.4-3.4 2.9-5.1 4.4l-4.2 3.9c-2.2 2.1-4.5 4.3-6.7 6.4-1.5 1.5-2.9 3.2-4.5 4.7-1.4 1.3-2.9 2.4-4.4 3.6-1.5 1.3-3 2.5-4.5 3.9s-3 2.8-4.4 4.2c-1.1 1.1-2.4 1.2-3.7.6-1-.4-2-1-3-1.7-.3-.2-.6-.9-.5-1.2.4-1 .8-2.1 1.5-2.9 2.1-2.3 4.4-4.5 6.7-6.7 2.4-2.3 4.8-4.5 7.3-6.7 5.2-4.6 10.4-9.3 15.1-14.4 2.1-2.3 4.5-4.4 6.8-6.6.3-.3.6-.7 1.2-1.3-2.1-2.3-4.1-4.7-6.2-6.9-1.3-1.5-2.9-2.7-4.1-4.3-2.8-3.9-6.5-7-9.9-10.3-1.5-1.4-3-2.7-4.6-4-1.3-1.1-2.4-2.5-3.4-4-1.2-1.9-2.9-3.6-4.4-5.3-1-1-2.1-1.8-3.2-2.8-1.2-1-1.4-1.9-.9-3 .5-1.1 1.9-2 3.1-1.7 1.3.4 2.7.9 3.8 1.8 3.1 2.6 6.3 5 9.4 7.5 4.1 3.3 7.8 7.1 11.4 10.9 4.7 4.9 9.2 9.9 13.8 14.9.3.3.6.5 1 .9l1.2-.9c2.1-1.7 4.3-3.4 6.3-5.3 3.9-3.7 8.4-6.9 12.3-10.6 5.5-5.2 10.6-10.7 15.8-16.1.7-.7 1.3-1.7 2.6-1.8.9.8 1 1.8.7 2.9-.9 4.2-2.5 8-5.6 11.1-2.2 2.2-4.3 4.6-6.4 7-2.4 2.8-5.1 5.2-7.9 7.6-1.9 1.6-3.7 3.4-5.5 5.2-1.2 1.2-2.4 2.3-3.6 3.5-1.1 1.1-2.2 2.2-3.4 3.5 1.6 2.1 3.2 4 4.7 6l9.3 12.3c2.3 3.1 4.6 6.2 7 9.2 3.3 4.2 6.8 8.3 10.1 12.4.6.6 1.1 1.3 1.6 2z"></path><path d="M38.8 5.8c4.9 4.4 9.6 8.9 13.5 14.5 3.7-5.4 8.9-9.2 13.2-14.1 2.1.5 3.2 2.2 4 3.9.6 1.2-.3 2.2-1.1 3-2.6 2.4-5.3 4.8-8 7.1-1.6 1.4-3.1 2.7-4.7 4.1-.8.7-1.6 1.4-2.4 2-1.3 1.1-2 1.2-3.2.1-3.5-3-6.8-6-9.8-9.5-1.1-1.3-2.2-2.5-3.4-3.7-.8-.8-1.7-1.6-1.5-2.8.3-1.6.9-3.1 2.4-4 .2-.3.5-.4 1-.6zM91.1 65.9c-.2.3-.5.8-.9 1.3-.9 1.4-1.9 1.3-2.9.6-2.3-1.6-4.5-3.4-6-6-.5-1-1.3-1.8-2-2.7-1.6-2-3.2-3.9-4.7-5.9-.8-1-1.5-2-2.4-3-1.1-1.4-1.3-2.3-.4-3.8.2-.4.4-.7.7-1 3.7-3.6 7.2-7.5 11.6-10.5.6-.4 1.4-.8 2-1.2.6-.5 1.2-1 1.6-1.6.7-1.2 1.5-1.8 3.1-1.6.1 2.1.2 4.1-1.2 6-1.5 2.1-3.6 3.5-5.5 5.2-1.2 1.1-2.6 2.1-3.9 3.2-1.3 1.2-1.4 1.6-.4 3 .8 1.2 1.8 2.3 2.7 3.5 1 1.5 2 3 2.9 4.6 2 3.2 3.8 6.5 5.7 9.9zM31.6 44.5c-.2.8-.4 1.3-.5 1.9-.2 3-1.9 5-4.1 6.8-5.1 4.4-10.2 8.9-15.3 13.3-.5.4-.9 1-1.5 1.2-.5.2-1.4.1-1.7-.2-.3-.3-.3-1.1-.2-1.7.1-.5.4-.9.7-1.3 3.4-4.2 7.1-8.2 11.3-11.6 1.6-1.3 3.2-2.6 4.8-3.8.4-.3.8-.5 1.4-.9-1-1.2-1.7-2.1-2.4-2.9-1.2-1.4-2.3-2.8-3.6-4.1-3.1-3.4-6.2-6.7-9.3-10-.6-.6-1.3-1.2-1.7-1.9-.3-.5-.4-1.2-.3-1.7.6-1.9 1.4-2.5 3.2-1.1.9.8 1.9 1.5 2.7 2.3 4.7 4.6 10 8.7 14.2 13.8.7.6 1.5 1.2 2.3 1.9zM70.4 90.1c-.9.9-1.6 1.2-2.7.8-4-1.6-7.5-3.7-10.3-6.9-1.7-1.9-3.2-3.9-4.8-5.9-.4-.5-1-.9-1.7-1.6-1.3 1.1-2.5 2.1-3.7 3.2-3.8 3.7-7.5 7.3-11.2 11-.3.3-.7.5-1 .7-.6.4-1.1.7-1.7.1-.6-.6-.6-1.2-.3-1.9.2-.4.4-.7.7-1 1.4-1.4 2.9-2.8 4.3-4.3 2.5-2.6 5.1-5.1 7.4-7.8 2-2.3 4.6-3.4 7.4-4.2 1.2-.4 2.3-.1 3.3 1 3 3.4 6.3 6.7 9.3 10.1 1.8 2 3.2 4.3 5 6.7z"></path><path d="M54.2 7.6c1.3-1.5 2.4-3 4.7-2.3.3.7 0 1.3-.5 1.8-1.5 1.6-2.9 3.2-4.5 4.8-1.1 1.1-1.6 1-2.6 0-.6-.6-1.3-1.1-1.9-1.5-1.7-1.1-2.2-2.8-2.3-4.7 0-.2.2-.4.4-.7 2.3.3 4.3 1.5 6.7 2.6zM10.8 47.3c-.8-.7-1.5-1.2-2.1-1.8-.9-.9-1-1.9-.4-2.6.8-.9 2.2-1.4 3-.8 1.6 1.1 3.1 2.3 4.8 3.5-.3.5-.4.9-.7 1.2-1.3 1.5-2.6 3-3.9 4.4-.5.5-1 1-1.6 1.3-.4.2-1.2.2-1.5 0-.3-.2-.4-1.1-.2-1.5.4-.9 1.1-1.6 1.7-2.4.2-.5.5-.8.9-1.3zM49.1 88.1c-.5.8-.8 1.5-1.3 2.1-.4.5-.8 1-1.4 1.2-.4.2-1 0-1.3-.2-.2-.1-.3-.8-.2-1.1.7-2.1 1.9-3.9 4-4.9.9-.5 1.9-.2 2.7.5.9.7 1.7 1.5 2.5 2.3.2.2.5.5.6.8.2.7.2 1.4-.5 1.9-.6.5-1.2.3-1.7-.1-1.1-.8-2.2-1.6-3.4-2.5zM91.2 44.4c-.4.8-.7 1.5-1.2 2-.9 1-.8 2 0 3 .4.6.9 1.1 1.2 1.7.5.8.4 1.5-.4 2-.7.5-1.5.6-2.1-.1-1.1-1.3-2.3-2.7-3.3-4.1-.2-.3-.2-1 0-1.3.7-1.5 3.5-3.1 5.8-3.2z"></path></g><!----><g data-v-423bf9ae="" id="22cda30f-e95f-4bec-b4a5-42d3a6278a9f" fill="black" transform="matrix(5.012408195370244,0,0,5.012408195370244,102.70209884908894,29.02331589736898)"><path d="M3.77 7.67L1.06 11.36L3.77 11.36L3.77 7.67ZM0.40 11.85L0.31 11.68L4.34 6.28L4.57 6.36L4.57 6.36Q4.51 7.40 4.51 9.73L4.51 9.73L4.51 11.36L6.26 11.36L6.15 11.87L4.51 11.87L4.51 13.95L5.89 14.08L5.82 14.39L1.98 14.39L2.03 14.10L3.79 13.90L3.79 11.85L0.40 11.85ZM14.78 10.40L14.78 10.40L14.78 10.40Q14.78 12.21 15.31 13.21L15.31 13.21L15.31 13.21Q15.85 14.21 16.67 14.21L16.67 14.21L16.67 14.21Q18.44 14.21 18.44 10.38L18.44 10.38L18.44 10.38Q18.44 8.68 17.95 7.60L17.95 7.60L17.95 7.60Q17.47 6.53 16.66 6.53L16.66 6.53L16.66 6.53Q16.05 6.53 15.62 7.03L15.62 7.03L15.62 7.03Q15.20 7.54 14.99 8.40L14.99 8.40L14.99 8.40Q14.78 9.26 14.78 10.40ZM13.96 10.38L13.96 10.38L13.96 10.38Q13.96 8.50 14.72 7.34L14.72 7.34L14.72 7.34Q15.49 6.18 16.65 6.18L16.65 6.18L16.65 6.18Q17.88 6.18 18.57 7.30L18.57 7.30L18.57 7.30Q19.27 8.42 19.27 10.38L19.27 10.38L19.27 10.38Q19.27 11.39 19.06 12.21L19.06 12.21L19.06 12.21Q18.84 13.02 18.47 13.53L18.47 13.53L18.47 13.53Q18.11 14.04 17.64 14.31L17.64 14.31L17.64 14.31Q17.18 14.58 16.66 14.58L16.66 14.58L16.66 14.58Q15.45 14.58 14.70 13.50L14.70 13.50L14.70 13.50Q13.96 12.43 13.96 10.38ZM30.43 7.67L27.73 11.36L30.43 11.36L30.43 7.67ZM27.07 11.85L26.97 11.68L31.01 6.28L31.24 6.36L31.24 6.36Q31.18 7.40 31.18 9.73L31.18 9.73L31.18 11.36L32.93 11.36L32.81 11.87L31.18 11.87L31.18 13.95L32.56 14.08L32.49 14.39L28.64 14.39L28.70 14.10L30.45 13.90L30.45 11.85L27.07 11.85Z"></path></g></svg>