<svg data-v-423bf9ae="" xmlns="http://www.w3.org/2000/svg" viewBox="0 0 204.38093747393478 60" class="font"><!----><!----><!----><g data-v-423bf9ae="" id="c332aa24-8c22-4b9a-a33b-b7328588c39e" fill="white" transform="matrix(4.761904617736313,0,0,4.761904617736313,-6.333336036582153,-18.666667418505156)"><path d="M11.31 3.92L8.90 3.92L6.36 12.21L3.81 3.92L1.33 3.92L1.33 13.58L2.87 13.58L2.87 8.83C2.87 7.73 2.87 6.43 2.84 5.39C3.11 6.41 3.51 7.73 3.86 8.81L5.43 13.58L7.21 13.58L8.76 8.82C9.13 7.73 9.53 6.40 9.81 5.38C9.79 6.40 9.79 7.73 9.79 8.83L9.79 13.58L11.31 13.58ZM16.49 5.95C13.99 5.95 12.73 7.69 12.73 9.86C12.73 12.03 13.99 13.78 16.49 13.78C18.98 13.78 20.26 12.03 20.26 9.86C20.26 7.69 18.98 5.95 16.49 5.95ZM16.49 12.66C15.13 12.66 14.35 11.54 14.35 9.86C14.35 8.18 15.13 7.07 16.49 7.07C17.84 7.07 18.62 8.18 18.62 9.86C18.62 11.54 17.84 12.66 16.49 12.66ZM28.18 8.08C28.04 6.78 27.13 5.95 25.54 5.95C24.79 5.95 24.25 6.08 23.66 6.52L23.16 7.38L23.16 6.15L21.62 6.15L21.62 13.58L23.16 13.58L23.16 10.25C23.16 7.92 24.02 7.08 25.09 7.08C26.14 7.08 26.59 7.67 26.66 8.51C26.68 8.89 26.68 9.21 26.68 9.56L26.68 13.58L28.22 13.58L28.22 9.39C28.22 8.79 28.21 8.46 28.18 8.08ZM36.50 9.67C36.50 7.57 35.34 5.95 33.18 5.95C31.04 5.95 29.54 7.53 29.54 9.88C29.54 12.52 31.04 13.78 33.03 13.78C34.65 13.78 36.06 12.94 36.39 11.17L34.83 11.17C34.68 12.11 33.98 12.66 33.08 12.66C32.07 12.66 31.26 12.07 31.14 10.29L36.47 10.29C36.50 10.02 36.50 9.81 36.50 9.67ZM33.12 7.07C34.20 7.07 34.80 7.84 34.92 9.21L31.15 9.21C31.32 7.78 32.07 7.07 33.12 7.07ZM44.25 6.15L42.59 6.15L40.56 12.43L38.51 6.15L36.79 6.15L39.79 13.93L39.68 14.20C39.34 15.06 38.86 15.36 38.16 15.36C38.01 15.36 37.86 15.36 37.67 15.34L37.67 16.48C37.90 16.52 38.09 16.52 38.40 16.52C39.75 16.52 40.54 15.82 41.23 14.06Z"></path></g><!----><!----></svg>